<svg xmlns="http://www.w3.org/2000/svg" width="177.472" height="27.384" viewBox="0 0 177.472 27.384">
  <g id="wordwork" transform="translate(0 0.01)">
    <g id="Group_8" data-name="Group 8" transform="translate(0 0.99)">
      <rect id="Rectangle_6" data-name="Rectangle 6" width="77.916" height="25.382" transform="translate(99.555 0.003)"/>
      <path id="Path_15" data-name="Path 15" d="M396.4,27.211V2.67h11.148A15.541,15.541,0,0,1,414.594,4.2a11.661,11.661,0,0,1,4.768,4.261,11.951,11.951,0,0,1,1.717,6.486,11.968,11.968,0,0,1-1.717,6.468,11.613,11.613,0,0,1-4.768,4.278,15.541,15.541,0,0,1-7.046,1.525H396.4Zm5.68-4.665h5.188a9.208,9.208,0,0,0,4.261-.929,6.742,6.742,0,0,0,2.806-2.647,7.869,7.869,0,0,0,1-4.031,7.909,7.909,0,0,0-1-4.048,6.765,6.765,0,0,0-2.806-2.629,9.208,9.208,0,0,0-4.261-.929H402.08V22.549Z" transform="translate(-296.286 -2.246)" fill="#fff" stroke="#000" stroke-miterlimit="10" stroke-width="2"/>
      <path id="Path_16" data-name="Path 16" d="M504.76,27.211V2.67h5.68V27.211Z" transform="translate(-377.279 -2.246)" fill="#fff"/>
      <path id="Path_17" data-name="Path 17" d="M547.931,26.374a20.053,20.053,0,0,1-5.645-.788,13.19,13.19,0,0,1-4.346-2.051l1.93-4.278A14.1,14.1,0,0,0,543.6,21.1a13.7,13.7,0,0,0,4.364.72,9.088,9.088,0,0,0,2.718-.333,3.177,3.177,0,0,0,1.525-.929,2.082,2.082,0,0,0,.49-1.366,1.855,1.855,0,0,0-.77-1.561,6.32,6.32,0,0,0-2.033-.947q-1.262-.367-2.788-.7t-3.051-.823a12.936,12.936,0,0,1-2.788-1.263,6.189,6.189,0,0,1-2.051-2.033,6,6,0,0,1-.788-3.225A6.843,6.843,0,0,1,539.569,4.8,7.8,7.8,0,0,1,543,2.025,14.065,14.065,0,0,1,548.772.99a19.368,19.368,0,0,1,4.559.543,13.192,13.192,0,0,1,3.963,1.632l-1.753,4.311a14.978,14.978,0,0,0-3.435-1.455,12.643,12.643,0,0,0-3.367-.472,7.951,7.951,0,0,0-2.7.386,3.179,3.179,0,0,0-1.508,1,2.319,2.319,0,0,0-.455,1.419,1.82,1.82,0,0,0,.77,1.525,6.11,6.11,0,0,0,2.033.929q1.262.352,2.788.7t3.051.806a11.748,11.748,0,0,1,2.788,1.227,6.212,6.212,0,0,1,2.051,2.033,5.924,5.924,0,0,1,.788,3.19,6.637,6.637,0,0,1-1.157,3.786,8.074,8.074,0,0,1-3.452,2.771,13.943,13.943,0,0,1-5.8,1.051Z" transform="translate(-402.08 -0.99)" fill="#fff" stroke="#000" stroke-miterlimit="10" stroke-width="2"/>
      <path id="Path_18" data-name="Path 18" d="M630.825,22.652h13.358v4.559h-19V2.67h18.545V7.229h-12.9V22.655Zm-.422-10.1h11.815v4.417H630.4V12.555Z" transform="translate(-467.287 -2.246)" fill="#fff"/>
      <g id="Group_4" data-name="Group 4" transform="translate(0 0.599)">
        <path id="Path_19" data-name="Path 19" d="M5.68,14.308V7.989h4.627a5.882,5.882,0,0,1,3.927,1.121,3.952,3.952,0,0,1,1.3,3.154,4.422,4.422,0,0,1-.447,2.043h5.993a9.993,9.993,0,0,0,.2-2.043,8.557,8.557,0,0,0-1.3-4.768A8.326,8.326,0,0,0,16.3,4.428,13.808,13.808,0,0,0,10.62,3.36H0V14.306H5.68Z" transform="translate(0 -3.36)"/>
        <path id="Path_20" data-name="Path 20" d="M14.489,50a3.318,3.318,0,0,1-.255.242,5.882,5.882,0,0,1-3.927,1.121H5.68V50H0V62.759H5.68V55.993h4.943a13.816,13.816,0,0,0,5.68-1.068,8.321,8.321,0,0,0,3.682-3.069A7.722,7.722,0,0,0,20.861,50H14.492Z" transform="translate(0 -38.221)"/>
      </g>
      <g id="Group_5" data-name="Group 5" transform="translate(19.669 0.599)">
        <path id="Path_21" data-name="Path 21" d="M107.282,14.308l2.233-5.369,2.225,5.367h5.513L112.359,3.36h-5.609L101.87,14.308Z" transform="translate(-95.811 -3.36)"/>
        <path id="Path_22" data-name="Path 22" d="M99.441,62.769h5.96L99.693,50.01H94.155L95.476,53.2h-7.8l1.326-3.187h-5.44L77.88,62.769H83.7l2.187-5.258H97.261Z" transform="translate(-77.88 -38.228)"/>
      </g>
      <g id="Group_6" data-name="Group 6" transform="translate(48.554 0.596)">
        <path id="Path_23" data-name="Path 23" d="M197.933,14.286V7.979h4.627A5.882,5.882,0,0,1,206.487,9.1a3.952,3.952,0,0,1,1.3,3.154,4.467,4.467,0,0,1-.437,2.028h5.986a9.865,9.865,0,0,0,.2-2.028,8.557,8.557,0,0,0-1.3-4.768,8.326,8.326,0,0,0-3.682-3.069,13.808,13.808,0,0,0-5.68-1.068H192.25V14.283h5.68Z" transform="translate(-192.25 -3.35)"/>
        <path id="Path_24" data-name="Path 24" d="M208.57,54.874a8.268,8.268,0,0,0,3.682-3.033A7.549,7.549,0,0,0,213.126,50h-6.354a3.725,3.725,0,0,1-.268.26,5.814,5.814,0,0,1-3.927,1.139H197.95V50h-5.68V62.759h5.68V55.922h4.943c.091,0,.177-.005.265-.005l4.713,6.842h6.135l-5.483-7.867c.015-.008.033-.013.048-.02Z" transform="translate(-192.265 -38.218)"/>
      </g>
      <g id="Group_7" data-name="Group 7" transform="translate(69.908 0.599)">
        <path id="Path_25" data-name="Path 25" d="M306.222,14.293l2.228-5.354,2.22,5.354h5.511L311.294,3.36h-5.609L300.81,14.293Z" transform="translate(-294.746 -3.36)"/>
        <path id="Path_26" data-name="Path 26" d="M298.361,62.769h5.96L298.616,50.01h-5.541L294.4,53.2h-7.8l1.326-3.187h-5.44L276.8,62.769h5.819l2.187-5.258h11.375Z" transform="translate(-276.8 -38.228)"/>
      </g>
      <rect id="Rectangle_7" data-name="Rectangle 7" width="71.016" height="1.086" transform="translate(105.793 12.095)"/>
    </g>
  </g>
</svg>
